<svg xmlns="http://www.w3.org/2000/svg" style="position:absolute; width: 0; height: 0"><symbol viewBox="0 0 47.971 47.971" id="icon-close"><path d="M28.228 23.986L47.092 5.122a2.998 2.998 0 0 0 0-4.242 2.998 2.998 0 0 0-4.242 0L23.986 19.744 5.121.88a2.998 2.998 0 0 0-4.242 0 2.998 2.998 0 0 0 0 4.242l18.865 18.864L.879 42.85a2.998 2.998 0 1 0 4.242 4.241l18.865-18.864L42.85 47.091c.586.586 1.354.879 2.121.879s1.535-.293 2.121-.879a2.998 2.998 0 0 0 0-4.242L28.228 23.986z"></path></symbol><symbol viewBox="0 0 167 24" id="icon-mediacom"><path d="M12.657 12.624h-.068L9.281.336H0v23.157h5.332V6.953H5.4l4.354 16.54h4.523l4.22-16.54h.067v16.54h6.615V.336H15.83zm14.34 10.869h17.382v-5.537h-10.43V14.21h8.439V9.045h-8.44V5.67h10.43V.337H26.998zM54.586.337h-8.54v23.157h9.013c3.206 0 6.075-.744 8.37-3.14 2.127-2.194 3.207-5.367 3.207-8.405 0-3.308-1.114-6.481-3.544-8.777C60.594.777 57.927.337 54.586.337m3.544 15.898a4.1 4.1 0 0 1-1.52 1.519c-.877.473-1.484.406-2.43.406h-1.013V5.603h.812c1.62 0 2.7-.068 3.814 1.317.979 1.282 1.417 3.307 1.417 4.86 0 1.553-.27 3.106-1.08 4.455m9.763 7.258h7.156V.336h-7.156zM83.42.337l-7.188 23.157h5.77l1.418-4.557h6.18l1.314 4.557h7.258L90.915.337H83.42zm1.183 13.535l1.889-6.716 1.89 6.716h-3.78zm32.29-4.59C116.419 3.51 113.044 0 107.14 0c-7.293 0-10.499 5.535-10.499 12.219 0 6.581 3.647 11.611 10.598 11.611 5.334 0 9.216-3.443 9.655-8.776l-6.481-.406c-.101 1.926-.945 3.848-3.139 3.848-3.206 0-3.342-3.948-3.342-6.277 0-2.194.136-7.021 3.274-7.021 2.397 0 3.139 2.463 3.074 4.421l6.614-.337zm11.925 9.248c-3.241 0-3.477-4.287-3.477-6.514 0-2.26.337-6.784 3.477-6.784 3.139 0 3.477 4.523 3.477 6.784 0 2.227-.237 6.514-3.477 6.514m0-18.53c-7.054 0-11.071 5.063-11.071 11.982 0 6.582 4.05 11.85 11.071 11.85s11.07-5.268 11.07-11.85c0-6.919-4.015-11.982-11.07-11.982m28.005.337l-3.172 12.288h-.067L150.276.337h-9.284v23.157h5.334V6.953h.067l4.358 16.54h4.52l4.221-16.54h.066v16.54h6.617V.338z" fill="#FFF" fill-rule="evenodd"></path></symbol></svg>